:SAMPLES-PER-SECOND 30
:FULLY-SPECIFIED
:DEGREES
170
root  -6.13946 40.9136 -1.03251 -1.66608 -83.5264 2.43445
RightUpLeg  5.77709 -2.04246 -0.140967
RightLeg  -4.67677 -31.3423 3.42398
RightFoot  -1.02607 -0.167058 1.75931
RightToes  -3.11842e-008 1.75238e-005 3.56266e-009
Spine  3.6304 -1.10416 -0.22844
Spine1  -5.61876 -0.333669 -5.42119
HEad  -10.4328 1.10682 -2.65361
LeftShoulder1  2.12361 -3.66456 -23.368
LeftArm  -76.0194 -2.42324 -40.6448
LeftForeArm  161.765 -62.6634 -160.086
LeftHand  -0.332898 -4.81087 4.00392
RightShoulder  1.6797 3.04899 19.2042
RightArm  -65.3501 7.18929 30.6678
RightForeArm  165.371 66.5895 156.891
RightHand  -0.24297 5.27036 -2.96688
LeftUpLeg  3.79265 2.02722 4.67137
LeftLeg  -3.57023 10.4427 -0.6648
LeftFoot  1.0712 0.521079 -4.77871
LeftToes  4.78904e-008 1.4679e-008 1.35657e-009
171
root  -6.12553 40.9036 -1.04478 -2.56427 -83.4013 3.14392
RightUpLeg  5.93353 -2.1491 -0.227233
RightLeg  -4.53566 -31.3565 3.36588
RightFoot  -1.22466 -0.166137 1.74066
RightToes  -3.11842e-008 1.75238e-005 3.56266e-009
Spine  3.64708 -1.10782 -1.63698
Spine1  -4.43831 -0.495873 -3.8424
HEad  -12.4888 0.15882 -2.2643
LeftShoulder1  2.03725 -3.26481 -23.8616
LeftArm  -73.2094 10.2674 -42.9258
LeftForeArm  157.457 -58.6785 -162.577
LeftHand  -0.0599508 -4.20922 1.02079
RightShoulder  1.8473 3.15937 21.4685
RightArm  -62.4887 -2.70284 32.3427
RightForeArm  161.343 65.3347 157.702
RightHand  -0.201492 5.82051 -2.35792
LeftUpLeg  3.87456 2.00727 4.60961
LeftLeg  -3.36759 10.3016 -0.592228
LeftFoot  0.897023 0.535644 -5.01802
LeftToes  4.78904e-008 1.4679e-008 1.35657e-009
172
root  -6.09378 40.8901 -1.05484 -3.24335 -83.5892 3.57892
RightUpLeg  5.94809 -2.17311 -0.250389
RightLeg  -4.05768 -31.1614 3.05671
RightFoot  -1.47515 -0.165194 1.7192
RightToes  -3.11842e-008 1.75238e-005 3.56266e-009
Spine  2.84033 -0.988135 -3.14647
Spine1  -1.89573 -0.609032 -1.7162
HEad  -15.3226 0.360528 -3.05111
LeftShoulder1  2.08002 -3.31199 -24.3083
LeftArm  -71.2193 20.0043 -45.2452
LeftForeArm  158 -55.8013 -164.319
LeftHand  -0.115138 -5.60434 1.54024
RightShoulder  1.96089 3.2515 22.8566
RightArm  -57.8162 -8.46115 32.5708
RightForeArm  162.524 64.977 158.168
RightHand  -0.391826 6.58062 -4.1426
LeftUpLeg  4.08869 2.05009 4.60197
LeftLeg  -3.24628 10.4494 -0.597185
LeftFoot  0.685934 0.545133 -5.21404
LeftToes  4.78904e-008 1.4679e-008 1.35657e-009
173
root  -6.01755 40.8846 -1.05218 -3.29138 -84.1797 3.20428
RightUpLeg  6.09492 -2.22541 -0.268278
RightLeg  -3.69834 -30.5215 2.87713
RightFoot  -1.52538 -0.164863 1.70465
RightToes  -3.11842e-008 1.75238e-005 3.56266e-009
Spine  2.30159 -0.923619 -4.2315
Spine1  0.358237 -0.800185 0.0393561
HEad  -17.6751 1.03776 -3.71655
LeftShoulder1  2.01057 -3.16046 -23.9257
LeftArm  -69.8007 25.802 -48.143
LeftForeArm  159.478 -53.6292 -165.571
LeftHand  -0.055255 -5.83237 0.887301
RightShoulder  2.0779 3.57866 23.1796
RightArm  -53.7833 -9.51454 32.8043
RightForeArm  162.356 64.8614 158.258
RightHand  -0.182591 6.81635 -2.08583
LeftUpLeg  4.3159 2.16398 4.67171
LeftLeg  -2.77701 10.8829 -0.519998
LeftFoot  0.384708 0.547347 -5.35246
LeftToes  4.78904e-008 1.4679e-008 1.35657e-009
174
root  -5.92177 40.8836 -1.017 -3.13971 -85.0634 2.63232
RightUpLeg  6.10788 -2.26899 -0.307771
RightLeg  -3.16153 -29.5748 2.56305
RightFoot  -1.52143 -0.169195 1.75975
RightToes  -3.11842e-008 1.75238e-005 3.56266e-009
Spine  2.12462 -0.712351 -4.01001
Spine1  1.58659 -0.627387 0.253985
HEad  -18.4347 0.852012 -3.29987
LeftShoulder1  1.83999 -2.80785 -22.872
LeftArm  -66.7089 27.6253 -50.1238
LeftForeArm  159.9 -52.9672 -165.92
LeftHand  -0.183857 -6.10971 2.19752
RightShoulder  2.23453 4.06765 23.3646
RightArm  -51.349 -6.98821 32.2986
RightForeArm  162.889 65.1513 158.044
RightHand  -0.246508 7.32332 -2.61083
LeftUpLeg  4.47906 2.22354 4.68445
LeftLeg  -2.14217 11.6821 -0.384089
LeftFoot  0.0683754 0.5508 -5.51607
LeftToes  4.78904e-008 1.4679e-008 1.35657e-009
175
root  -5.80927 40.8807 -0.952446 -3.74872 -86.3217 2.88855
RightUpLeg  5.87325 -2.31382 -0.452759
RightLeg  -2.3664 -28.2333 2.09216
RightFoot  -1.56862 -0.180531 1.92071
RightToes  -3.11842e-008 1.75238e-005 3.56266e-009
Spine  2.33574 -0.189807 -3.27508
Spine1  1.82359 -0.0776755 0.0965166
HEad  -17.7532 0.732574 -2.5369
LeftShoulder1  1.90065 -3.07153 -22.6069
LeftArm  -63.8003 26.4051 -49.913
LeftForeArm  159.952 -53.5341 -165.647
LeftHand  -0.142397 -5.93254 1.7607
RightShoulder  2.28864 4.36482 22.9089
RightArm  -49.5911 -2.81094 31.6253
RightForeArm  162.721 65.645 157.546
RightHand  -0.363988 7.08422 -3.73464
LeftUpLeg  4.66565 2.28966 4.59939
LeftLeg  -1.61726 12.881 -0.349589
LeftFoot  -0.256151 0.525269 -5.39536
LeftToes  4.78904e-008 1.4679e-008 1.35657e-009
176
root  -5.69212 40.8704 -0.860382 -5.21448 -87.96 4.13562
RightUpLeg  5.35677 -2.32095 -0.613066
RightLeg  -1.39851 -26.5662 1.5367
RightFoot  -1.60838 -0.185922 1.9865
RightToes  -3.11842e-008 1.75238e-005 3.56266e-009
Spine  2.73849 0.259329 -1.61831
Spine1  1.39493 0.605436 -1.18002
HEad  -16.599 -0.264047 -1.14274
LeftShoulder1  1.93528 -3.26519 -22.2724
LeftArm  -61.092 23.4632 -48.9864
LeftForeArm  160.448 -54.777 -165.056
LeftHand  -0.0113804 -5.54913 0.424776
RightShoulder  2.32695 4.64605 22.3336
RightArm  -47.8253 2.39292 31.4106
RightForeArm  162.719 66.5103 156.667
RightHand  -0.491585 7.36657 -4.81862
LeftUpLeg  4.67671 2.40574 4.50251
LeftLeg  -0.894659 14.4216 -0.34841
LeftFoot  -0.763594 0.485957 -5.19888
LeftToes  4.78904e-008 1.4679e-008 1.35657e-009
177
root  -5.59439 40.8591 -0.752381 -4.60681 -89.3634 3.1394
RightUpLeg  5.25993 -2.30865 -0.735825
RightLeg  -0.887117 -25.1578 1.17989
RightFoot  -1.54202 -0.190453 2.03592
RightToes  -3.11842e-008 1.75238e-005 3.56266e-009
Spine  3.32528 0.57234 -0.0945631
Spine1  0.943176 1.09624 -2.19679
HEad  -15.264 -0.898353 -0.344582
LeftShoulder1  1.99253 -3.46715 -22.2656
LeftArm  -57.955 19.2685 -48.0569
LeftForeArm  159.766 -56.5698 -164.032
LeftHand  -0.250183 -5.49536 3.00227
RightShoulder  2.27408 4.63706 21.6798
RightArm  -45.4276 7.67062 31.723
RightForeArm  163.45 67.4416 155.735
RightHand  -0.675721 7.88059 -6.26417
LeftUpLeg  4.8383 2.5826 4.45959
LeftLeg  -0.131602 15.5914 -0.315672
LeftFoot  -1.21684 0.457887 -5.08654
LeftToes  4.78904e-008 1.4679e-008 1.35657e-009
178
root  -5.51522 40.8588 -0.633135 -179.384 -89.1237 177.411
RightUpLeg  5.33603 -2.18452 -0.811377
RightLeg  -0.456321 -23.7348 0.777929
RightFoot  -1.42255 -0.208008 2.28426
RightToes  -3.11842e-008 1.75238e-005 3.56266e-009
Spine  3.16405 0.708369 1.16984
Spine1  1.83819 1.36459 -2.86241
HEad  -15.7007 -0.399885 0.111135
LeftShoulder1  2.1446 -4.01741 -22.1991
LeftArm  -55.4458 14.284 -47.6041
LeftForeArm  159.251 -58.5422 -162.803
LeftHand  -0.263749 -4.72032 3.31363
RightShoulder  2.35183 5.03091 21.2715
RightArm  -42.5864 13.1026 31.9908
RightForeArm  162.636 68.5365 154.337
RightHand  -0.771452 8.69851 -6.72345
LeftUpLeg  5.43994 2.851 4.46301
LeftLeg  0.0593815 16.7926 -0.484065
LeftFoot  -1.45433 0.441593 -5.00141
LeftToes  4.78904e-008 1.4679e-008 1.35657e-009
179
root  -5.4554 40.8613 -0.514205 174.034 -87.7859 -176.443
RightUpLeg  5.451 -2.08512 -0.852806
RightLeg  -0.210055 -22.4852 0.540057
RightFoot  -1.26917 -0.215075 2.34146
RightToes  -3.11842e-008 1.75238e-005 3.56266e-009
Spine  2.46269 0.555605 1.57255
Spine1  3.3787 1.1135 -2.34162
HEad  -16.0936 0.851528 0.665844
LeftShoulder1  2.21637 -4.33376 -21.9426
LeftArm  -52.7233 8.06537 -47.5779
LeftForeArm  159.961 -61.1093 -161.131
LeftHand  -0.205056 -4.42548 2.71718
RightShoulder  2.4168 5.45242 20.6468
RightArm  -38.5673 17.3998 32.6207
RightForeArm  161.44 69.6577 152.715
RightHand  -0.81078 8.83632 -6.97254
LeftUpLeg  6.26309 2.91177 4.36311
LeftLeg  -0.405752 18.1037 -0.618917
LeftFoot  -1.47868 0.409779 -4.66662
LeftToes  4.78904e-008 1.4679e-008 1.35657e-009
180
root  -5.39043 40.8794 -0.417274 174.494 -86.8185 -177.268
RightUpLeg  5.64841 -2.04217 -0.980811
RightLeg  -0.270643 -21.5761 0.526812
RightFoot  -1.02921 -0.215629 2.30979
RightToes  -3.11842e-008 1.75238e-005 3.56266e-009
Spine  2.57598 0.483383 1.02446
Spine1  3.77275 0.701702 -0.895982
HEad  -17.1691 1.68555 0.423262
LeftShoulder1  2.30572 -4.74026 -21.6305
LeftArm  -48.6547 0.487813 -47.0771
LeftForeArm  159.351 -64.3781 -158.356
LeftHand  -0.279709 -4.74384 3.47675
RightShoulder  2.27111 5.35128 19.2185
RightArm  -33.8052 18.9809 34.3849
RightForeArm  161.247 70.261 151.834
RightHand  -0.999524 9.09028 -8.3712
LeftUpLeg  6.73667 2.95622 4.22991
LeftLeg  -0.504759 18.9969 -0.618293
LeftFoot  -1.26863 0.416134 -4.71632
LeftToes  4.78904e-008 1.4679e-008 1.35657e-009
181
root  -5.33689 40.8834 -0.35934 172.826 -86.7789 -175.663
RightUpLeg  5.6199 -2.04296 -1.0016
RightLeg  -0.269001 -21.5569 0.569249
RightFoot  -0.914462 -0.222306 2.37744
RightToes  -3.11842e-008 1.75238e-005 3.56266e-009
Spine  2.62431 -0.0278537 0.988034
Spine1  3.52854 0.128402 -0.772619
HEad  -18.1269 1.81226 0.724171
LeftShoulder1  2.19371 -4.94562 -19.4679
LeftArm  -43.6156 -9.15072 -45.9136
LeftForeArm  158.287 -69.035 -153.129
LeftHand  -0.420824 -5.43967 4.83587
RightShoulder  2.36213 5.65869 19.3578
RightArm  -29.4217 17.1559 34.6798
RightForeArm  162.952 69.8296 152.677
RightHand  -1.06479 9.53441 -8.64424
LeftUpLeg  6.74714 3.02208 4.26722
LeftLeg  -0.561126 18.8983 -0.672727
LeftFoot  -1.17725 0.410564 -4.52021
LeftToes  4.78904e-008 1.4679e-008 1.35657e-009
182
root  -5.28679 40.8913 -0.333659 170.394 -87.7415 -172.799
RightUpLeg  5.18314 -2.08742 -1.06187
RightLeg  -0.295625 -22.4899 0.683809
RightFoot  -0.861955 -0.227254 2.41205
RightToes  -3.11842e-008 1.75238e-005 3.56266e-009
Spine  2.97681 -0.68454 -0.738284
Spine1  2.29149 -0.955329 1.28319
HEad  -18.5226 2.30001 1.08984
LeftShoulder1  2.12479 -4.99871 -18.434
LeftArm  -39.0576 -20.6519 -43.9195
LeftForeArm  153.076 -73.5332 -144.744
LeftHand  -0.431009 -5.26861 5.00397
RightShoulder  2.39725 5.73711 19.5327
RightArm  -26.1511 12.6474 33.3791
RightForeArm  165.729 68.6196 154.612
RightHand  -1.06545 10.084 -8.35994
LeftUpLeg  6.05841 2.89952 4.21999
LeftLeg  -0.632202 18.0244 -0.70118
LeftFoot  -0.927798 0.403607 -4.36922
LeftToes  4.78904e-008 1.4679e-008 1.35657e-009
183
root  -5.24812 40.8983 -0.320191 -177.029 -88.9049 175.208
RightUpLeg  4.5905 -2.02007 -1.09545
RightLeg  -0.27047 -23.7308 0.630735
RightFoot  -0.806355 -0.23794 2.51969
RightToes  -3.11842e-008 1.75238e-005 3.56266e-009
Spine  3.66023 -1.06091 -3.15332
Spine1  0.827452 -1.88503 4.30528
HEad  -19.2966 2.72949 1.05525
LeftShoulder1  2.15728 -5.42896 -17.5167
LeftArm  -35.4969 -31.2952 -41.7492
LeftForeArm  142.141 -77.193 -131.939
LeftHand  -0.532844 -5.16628 6.15778
RightShoulder  2.36606 5.5534 19.7297
RightArm  -25.0243 6.35921 30.24
RightForeArm  170.563 66.6553 157.408
RightHand  -1.07065 10.5319 -8.182
LeftUpLeg  5.25315 2.85802 4.19262
LeftLeg  -0.799138 16.9055 -0.928068
LeftFoot  -0.674617 0.388145 -4.11365
LeftToes  4.78904e-008 1.4679e-008 1.35657e-009
184
root  -5.24067 40.9167 -0.322262 38.5198 -89.5197 -39.5466
RightUpLeg  4.13053 -1.94656 -1.10661
RightLeg  -0.836832 -25.3844 0.856704
RightFoot  -0.597613 -0.253056 2.6465
RightToes  -3.11842e-008 1.75238e-005 3.56266e-009
Spine  4.02222 -1.66143 -5.57424
Spine1  -0.182624 -2.95079 7.06816
HEad  -20.5544 3.5358 1.42081
LeftShoulder1  1.90166 -5.13979 -15.1746
LeftArm  -32.2293 -39.9326 -41.2396
LeftForeArm  126.051 -79.3792 -115.684
LeftHand  -0.724202 -4.85943 8.4968
RightShoulder  2.33949 5.42803 19.8011
RightArm  -26.2586 -0.916346 26.6198
RightForeArm  170.714 64.7702 159.244
RightHand  -1.02028 11.0668 -7.5746
LeftUpLeg  4.28298 2.56593 4.04105
LeftLeg  -1.16921 15.7192 -0.973828
LeftFoot  -0.203296 0.401042 -4.10119
LeftToes  4.78904e-008 1.4679e-008 1.35657e-009
